<svg width="50" height="50" viewBox="0 0 50 50" fill="none" xmlns="http://www.w3.org/2000/svg">
<rect width="50" height="50" rx="15" fill="#123344"/>
<path d="M32.876 21.999H25.751V24.624C25.751 26.4849 24.237 27.999 22.376 27.999C20.5151 27.999 19.0011 26.4849 19.0011 24.624V18.924L15.9589 20.7521C15.0542 21.2912 14.5011 22.2708 14.5011 23.3208V25.538L10.7511 27.7036C10.0339 28.1161 9.78544 29.0349 10.2026 29.7521L13.9526 36.2489C14.3651 36.9661 15.2839 37.2099 16.0011 36.7974L20.8479 33.9989H27.251C28.9057 33.9989 30.251 32.6536 30.251 30.999H31.001C31.8307 30.999 32.501 30.3286 32.501 29.499V26.499H32.876C33.4995 26.499 34.001 25.9974 34.001 25.374V23.124C34.001 22.5005 33.4995 21.999 32.876 21.999ZM39.7995 20.2458L36.0495 13.749C35.637 13.0318 34.7182 12.788 34.001 13.2005L29.1542 15.999H24.3635C23.801 15.999 23.2526 16.1584 22.7745 16.4537L21.2042 17.4334C20.7635 17.7052 20.501 18.188 20.501 18.7037V24.624C20.501 25.6599 21.3401 26.499 22.376 26.499C23.412 26.499 24.251 25.6599 24.251 24.624V20.499H32.876C34.3245 20.499 35.501 21.6755 35.501 23.124V24.4599L39.251 22.2943C39.9682 21.8771 40.212 20.963 39.7995 20.2458Z" fill="white"/>
</svg>
