<svg width="50" height="50" viewBox="0 0 50 50" fill="none" xmlns="http://www.w3.org/2000/svg">
<rect width="50" height="50" rx="15" fill="#123344"/>
<path d="M25.3475 15.33C25.2544 15.241 25.1306 15.1913 25.0019 15.1913C24.8731 15.1913 24.7493 15.241 24.6562 15.33L13.15 26.3218C13.1012 26.3686 13.0623 26.4247 13.0357 26.4869C13.0092 26.5491 12.9956 26.6161 12.9956 26.6837L12.9938 36.9999C12.9938 37.5303 13.2045 38.039 13.5796 38.4141C13.9546 38.7892 14.4633 38.9999 14.9938 38.9999H21C21.2652 38.9999 21.5196 38.8945 21.7071 38.707C21.8946 38.5195 22 38.2651 22 37.9999V29.4999C22 29.3673 22.0527 29.2401 22.1464 29.1464C22.2402 29.0526 22.3674 28.9999 22.5 28.9999H27.5C27.6326 28.9999 27.7598 29.0526 27.8535 29.1464C27.9473 29.2401 28 29.3673 28 29.4999V37.9999C28 38.2651 28.1053 38.5195 28.2929 38.707C28.4804 38.8945 28.7348 38.9999 29 38.9999H35.0037C35.5341 38.9999 36.0429 38.7892 36.4179 38.4141C36.793 38.039 37.0037 37.5303 37.0037 36.9999V26.6837C37.0038 26.6161 36.9901 26.5491 36.9636 26.4869C36.9371 26.4247 36.8982 26.3686 36.8493 26.3218L25.3475 15.33Z" fill="white"/>
<path d="M39.6818 24.2593L35.0068 19.7868V13C35.0068 12.7348 34.9015 12.4804 34.7139 12.2929C34.5264 12.1054 34.2721 12 34.0068 12H31.0068C30.7416 12 30.4873 12.1054 30.2997 12.2929C30.1122 12.4804 30.0068 12.7348 30.0068 13V15L26.3869 11.5387C26.0481 11.1962 25.5444 11 25 11C24.4575 11 23.955 11.1962 23.6162 11.5394L10.3225 24.2581C9.93377 24.6331 9.88502 25.2499 10.2388 25.6562C10.3276 25.7587 10.4364 25.8421 10.5585 25.9013C10.6805 25.9605 10.8134 25.9942 10.9489 26.0004C11.0844 26.0066 11.2198 25.9851 11.3468 25.9374C11.4738 25.8896 11.5897 25.8164 11.6875 25.7224L24.6562 13.33C24.7493 13.241 24.8731 13.1913 25.0019 13.1913C25.1306 13.1913 25.2544 13.241 25.3475 13.33L38.3175 25.7224C38.5085 25.9057 38.7644 26.0056 39.0291 26.0005C39.2937 25.9953 39.5455 25.8855 39.7293 25.6949C40.1131 25.2974 40.0812 24.6412 39.6818 24.2593Z" fill="white"/>
</svg>
