<svg width="30" height="24" viewBox="0 0 30 24" fill="none" xmlns="http://www.w3.org/2000/svg">
<path d="M22.876 8.99897H15.751V11.624C15.751 13.4849 14.237 14.999 12.376 14.999C10.5151 14.999 9.00105 13.4849 9.00105 11.624V5.92398L5.95887 7.7521C5.05418 8.29116 4.50106 9.27084 4.50106 10.3208V12.538L0.751068 14.7036C0.0338816 15.1161 -0.214555 16.0349 0.202631 16.7521L3.95262 23.2489C4.36512 23.9661 5.28387 24.2099 6.00106 23.7974L10.8479 20.9989H17.251C18.9057 20.9989 20.251 19.6536 20.251 17.999H21.001C21.8307 17.999 22.501 17.3286 22.501 16.499V13.499H22.876C23.4995 13.499 24.001 12.9974 24.001 12.374V10.124C24.001 9.50053 23.4995 8.99897 22.876 8.99897ZM29.7995 7.24585L26.0495 0.748985C25.637 0.0317984 24.7182 -0.211951 24.001 0.200548L19.1542 2.99898H14.3635C13.801 2.99898 13.2526 3.15836 12.7745 3.45367L11.2042 4.43335C10.7635 4.70523 10.501 5.18804 10.501 5.70366V11.624C10.501 12.6599 11.3401 13.499 12.376 13.499C13.412 13.499 14.251 12.6599 14.251 11.624V7.49897H22.876C24.3245 7.49897 25.501 8.67553 25.501 10.124V11.4599L29.251 9.29428C29.9682 8.87709 30.212 7.96303 29.7995 7.24585Z" fill="white"/>
</svg>
