<svg width="50" height="50" viewBox="0 0 50 50" fill="none" xmlns="http://www.w3.org/2000/svg">
<rect width="50" height="50" rx="15" fill="#122732"/>
<path d="M24.4542 23.4167H24.4698M24.4584 29.6667H24.474M20.2917 26.5417H28.625" stroke="white" stroke-width="1.5" stroke-linecap="round" stroke-linejoin="round"/>
<path d="M31.2292 18.2085C32.0921 18.2085 32.7917 18.9081 32.7917 19.771C32.7917 20.6339 32.0921 21.3335 31.2292 21.3335C30.3662 21.3335 29.6667 20.6339 29.6667 19.771C29.6667 18.9081 30.3662 18.2085 31.2292 18.2085Z" stroke="white" stroke-width="1.5" stroke-linecap="round" stroke-linejoin="round"/>
<path d="M15.8896 24.6085C14.8448 25.7751 14.8229 27.5355 15.7813 28.7751C17.6427 31.1916 19.8086 33.3574 22.225 35.2189C23.4646 36.1772 25.225 36.1553 26.3917 35.1105C29.5454 32.2895 32.5088 29.2628 35.2625 26.0501C35.5405 25.7306 35.7117 25.3322 35.7521 24.9105C35.9229 23.0397 36.2761 17.6501 34.8125 16.1876C33.349 14.7251 27.9604 15.0772 26.0896 15.2491C25.668 15.2895 25.2695 15.4607 24.95 15.7387C21.7374 18.492 18.7106 21.4551 15.8896 24.6085Z" stroke="white" stroke-width="1.5" stroke-linecap="round" stroke-linejoin="round"/>
</svg>
