<svg width="30" height="28" viewBox="0 0 30 28" fill="none" xmlns="http://www.w3.org/2000/svg">
<path d="M15.3475 4.32998C15.2544 4.24096 15.1306 4.19128 15.0019 4.19128C14.8731 4.19128 14.7493 4.24096 14.6562 4.32998L3.15002 15.3218C3.10116 15.3686 3.06228 15.4247 3.03575 15.4869C3.00921 15.5491 2.99557 15.6161 2.99565 15.6837L2.99377 25.9999C2.99377 26.5303 3.20449 27.039 3.57956 27.4141C3.95463 27.7892 4.46334 27.9999 4.99377 27.9999H11C11.2652 27.9999 11.5196 27.8945 11.7071 27.707C11.8946 27.5195 12 27.2651 12 26.9999V18.4999C12 18.3673 12.0527 18.2401 12.1464 18.1464C12.2402 18.0526 12.3674 17.9999 12.5 17.9999H17.5C17.6326 17.9999 17.7598 18.0526 17.8535 18.1464C17.9473 18.2401 18 18.3673 18 18.4999V26.9999C18 27.2651 18.1053 27.5195 18.2929 27.707C18.4804 27.8945 18.7348 27.9999 19 27.9999H25.0037C25.5341 27.9999 26.0429 27.7892 26.4179 27.4141C26.793 27.039 27.0037 26.5303 27.0037 25.9999V15.6837C27.0038 15.6161 26.9901 15.5491 26.9636 15.4869C26.9371 15.4247 26.8982 15.3686 26.8493 15.3218L15.3475 4.32998Z" fill="white"/>
<path d="M29.6818 13.2593L25.0068 8.78684V1.99999C25.0068 1.73478 24.9015 1.48042 24.7139 1.29289C24.5264 1.10535 24.2721 0.999996 24.0068 0.999996H21.0068C20.7416 0.999996 20.4873 1.10535 20.2997 1.29289C20.1122 1.48042 20.0068 1.73478 20.0068 1.99999V3.99998L16.3869 0.538748C16.0481 0.196249 15.5444 0 15 0C14.4575 0 13.955 0.196249 13.6162 0.539373L0.322523 13.2581C-0.0662261 13.6331 -0.114976 14.2499 0.238773 14.6562C0.327605 14.7587 0.436373 14.8421 0.558459 14.9013C0.680545 14.9605 0.813394 14.9942 0.948922 15.0004C1.08445 15.0066 1.21982 14.9851 1.3468 14.9374C1.47377 14.8896 1.5897 14.8164 1.68752 14.7224L14.6562 2.32999C14.7493 2.24098 14.8731 2.1913 15.0019 2.1913C15.1306 2.1913 15.2544 2.24098 15.3475 2.32999L28.3175 14.7224C28.5085 14.9057 28.7644 15.0056 29.0291 15.0005C29.2937 14.9953 29.5455 14.8855 29.7293 14.6949C30.1131 14.2974 30.0812 13.6412 29.6818 13.2593Z" fill="white"/>
</svg>
