<svg width="30" height="30" viewBox="0 0 30 30" fill="none" xmlns="http://www.w3.org/2000/svg">
<path d="M15.4114 14.3106H8.45965C5.94183 14.296 3.90448 12.2596 3.88843 9.74354V4.55768C3.90151 2.04108 5.94195 0.00535075 8.45913 0H15.4114L16.7679 3.87944H28.3723L30 7.14849L28.3723 10.4175H16.7678L15.4114 14.3106ZM8.45965 1.35644C6.68925 1.3595 5.25409 2.79079 5.24484 4.55951V9.73927C5.25705 11.5108 6.69065 12.9434 8.46134 12.9541H14.4484L15.8048 9.06112H27.5314L28.4809 7.14852L27.5314 5.23591H15.8048L14.4484 1.35644H8.45965ZM10.4265 9.7393H9.07005V4.55768H10.4265V9.7393ZM24.6692 7.14849H23.3128V4.55768H24.6692V7.14849ZM20.7898 7.14849H19.4333V4.55768H20.7898V7.14849ZM22.5898 29.7781L14.4022 21.6042L10.7358 23.6022L5.86067 18.6525C5.03788 17.8269 4.52915 16.6878 4.52915 15.4298C4.52915 14.2767 4.95663 13.2235 5.66165 12.4199L5.65723 12.4251L6.67727 13.319C6.18553 13.8798 5.88551 14.6195 5.88551 15.4292C5.88551 16.3137 6.24348 17.1146 6.82247 17.6949L6.82241 17.6949L10.9854 21.9202L14.6478 19.929L22.9546 28.2222L24.9486 27.544L25.6065 25.5487L17.4149 17.3625L19.2475 13.7001L15.8048 10.2168L16.7693 9.26724L20.8983 13.4289L19.0684 17.0912L27.1569 25.1797L26.0243 28.6102L22.5898 29.7781ZM10.4849 16.8254L9.52852 15.8637L12.255 13.1508L13.2113 14.1125L10.4849 16.8254ZM22.3822 25.0672L21.4218 24.1177L23.2585 22.281L24.208 23.2414L22.3822 25.0672ZM19.6422 22.3136L18.6818 21.3641L20.5184 19.5274L21.468 20.4878L19.6422 22.3136ZM5.20826 16.8566C2.26491 16.5196 0 14.0427 0 11.0367C0 7.80267 2.62172 5.18095 5.85579 5.18095C7.60752 5.18095 9.17959 5.95012 10.2527 7.16916L10.2583 7.17565L9.23278 8.07091C8.40565 7.13744 7.2038 6.55199 5.86521 6.55199C3.38403 6.55199 1.37261 8.56338 1.37261 11.0446C1.37261 13.3468 3.10439 15.2446 5.33633 15.5063L5.35738 15.5083L5.20826 16.8566Z" fill="white"/>
</svg>
