<svg width="50" height="50" viewBox="0 0 50 50" fill="none" xmlns="http://www.w3.org/2000/svg">
<rect width="50" height="50" rx="15" fill="#123344"/>
<path d="M25.4114 24.3106H18.4597C15.9418 24.296 13.9045 22.2596 13.8884 19.7435V14.5577C13.9015 12.0411 15.942 10.0054 18.4591 10H25.4114L26.7679 13.8794H38.3723L40 17.1485L38.3723 20.4175H26.7678L25.4114 24.3106ZM18.4597 11.3564C16.6893 11.3595 15.2541 12.7908 15.2448 14.5595V19.7393C15.2571 21.5108 16.6906 22.9434 18.4613 22.9541H24.4484L25.8048 19.0611H37.5314L38.4809 17.1485L37.5314 15.2359H25.8048L24.4484 11.3564H18.4597ZM20.4265 19.7393H19.07V14.5577H20.4265V19.7393ZM34.6692 17.1485H33.3128V14.5577H34.6692V17.1485ZM30.7898 17.1485H29.4333V14.5577H30.7898V17.1485ZM32.5898 39.7781L24.4022 31.6042L20.7358 33.6022L15.8607 28.6525C15.0379 27.8269 14.5291 26.6878 14.5291 25.4298C14.5291 24.2767 14.9566 23.2235 15.6616 22.4199L15.6572 22.4251L16.6773 23.319C16.1855 23.8798 15.8855 24.6195 15.8855 25.4292C15.8855 26.3137 16.2435 27.1146 16.8225 27.6949L16.8224 27.6949L20.9854 31.9202L24.6478 29.929L32.9546 38.2222L34.9486 37.544L35.6065 35.5487L27.4149 27.3625L29.2475 23.7001L25.8048 20.2168L26.7693 19.2672L30.8983 23.4289L29.0684 27.0912L37.1569 35.1797L36.0243 38.6102L32.5898 39.7781ZM20.4849 26.8254L19.5285 25.8637L22.255 23.1508L23.2113 24.1125L20.4849 26.8254ZM32.3822 35.0672L31.4218 34.1177L33.2585 32.281L34.208 33.2414L32.3822 35.0672ZM29.6422 32.3136L28.6818 31.3641L30.5184 29.5274L31.468 30.4878L29.6422 32.3136ZM15.2083 26.8566C12.2649 26.5196 10 24.0427 10 21.0367C10 17.8027 12.6217 15.181 15.8558 15.181C17.6075 15.181 19.1796 15.9501 20.2527 17.1692L20.2583 17.1756L19.2328 18.0709C18.4057 17.1374 17.2038 16.552 15.8652 16.552C13.384 16.552 11.3726 18.5634 11.3726 21.0446C11.3726 23.3468 13.1044 25.2446 15.3363 25.5063L15.3574 25.5083L15.2083 26.8566Z" fill="white"/>
</svg>
