<svg width="81" height="36" viewBox="0 0 81 36" fill="none" xmlns="http://www.w3.org/2000/svg">
<path d="M41.76 21.7V18.52H50.64C51.7 18.52 52.54 18.24 53.16 17.68C53.78 17.1 54.09 16.3 54.09 15.28C54.09 14.22 53.78 13.41 53.16 12.85C52.54 12.29 51.7 12.01 50.64 12.01H42.24V28H38.25V8.59H50.28C51.36 8.59 52.37 8.72 53.31 8.98C54.27 9.24 55.1 9.64 55.8 10.18C56.52 10.72 57.08 11.41 57.48 12.25C57.88 13.09 58.08 14.1 58.08 15.28C58.08 16.44 57.88 17.43 57.48 18.25C57.08 19.07 56.52 19.74 55.8 20.26C55.1 20.76 54.27 21.13 53.31 21.37C52.37 21.59 51.36 21.7 50.28 21.7H41.76ZM65.8254 8.59V24.67H78.7254V28H61.8354V8.59H65.8254Z" fill="white"/>
<path d="M15 28.4999V20.9999H21V28.4999C21 29.3249 21.675 29.9999 22.5 29.9999H27C27.825 29.9999 28.5 29.3249 28.5 28.4999V17.9999H31.05C31.74 17.9999 32.07 17.1449 31.545 16.6949L19.005 5.39993C18.435 4.88993 17.565 4.88993 16.995 5.39993L4.45499 16.6949C3.94499 17.1449 4.25999 17.9999 4.94999 17.9999H7.49999V28.4999C7.49999 29.3249 8.17499 29.9999 8.99999 29.9999H13.5C14.325 29.9999 15 29.3249 15 28.4999Z" fill="white"/>
</svg>
