<svg width="44" height="44" viewBox="0 0 44 44" fill="none" xmlns="http://www.w3.org/2000/svg">
<circle cx="22" cy="22" r="22" fill="#123344"/>
<path d="M16.62 20.79C18.06 23.62 20.38 25.94 23.21 27.38L25.41 25.18C25.69 24.9 26.08 24.82 26.43 24.93C27.55 25.3 28.75 25.5 30 25.5C30.2652 25.5 30.5196 25.6054 30.7071 25.7929C30.8946 25.9804 31 26.2348 31 26.5V30C31 30.2652 30.8946 30.5196 30.7071 30.7071C30.5196 30.8946 30.2652 31 30 31C25.4913 31 21.1673 29.2089 17.9792 26.0208C14.7911 22.8327 13 18.5087 13 14C13 13.7348 13.1054 13.4804 13.2929 13.2929C13.4804 13.1054 13.7348 13 14 13H17.5C17.7652 13 18.0196 13.1054 18.2071 13.2929C18.3946 13.4804 18.5 13.7348 18.5 14C18.5 15.25 18.7 16.45 19.07 17.57C19.18 17.92 19.1 18.31 18.82 18.59L16.62 20.79Z" fill="white"/>
</svg>
