<svg width="24" height="24" viewBox="0 0 24 24" fill="none" xmlns="http://www.w3.org/2000/svg">
<g clip-path="url(#clip0_23_309)">
<path d="M14.707 5.63585L20.364 11.2929C20.5515 11.4804 20.6568 11.7347 20.6568 11.9999C20.6568 12.265 20.5515 12.5193 20.364 12.7069L14.707 18.3639C14.5184 18.546 14.2658 18.6468 14.0036 18.6445C13.7414 18.6423 13.4906 18.5371 13.3052 18.3517C13.1198 18.1663 13.0146 17.9155 13.0123 17.6533C13.01 17.3911 13.1108 17.1385 13.293 16.9499L17.243 12.9999H4C3.73478 12.9999 3.48043 12.8945 3.29289 12.707C3.10536 12.5194 3 12.2651 3 11.9999C3 11.7346 3.10536 11.4803 3.29289 11.2927C3.48043 11.1052 3.73478 10.9999 4 10.9999H17.243L13.293 7.04985C13.1975 6.95761 13.1213 6.84726 13.0689 6.72526C13.0165 6.60325 12.9889 6.47204 12.9877 6.33926C12.9866 6.20648 13.0119 6.0748 13.0622 5.9519C13.1125 5.829 13.1867 5.71735 13.2806 5.62346C13.3745 5.52957 13.4861 5.45531 13.609 5.40503C13.7319 5.35475 13.8636 5.32945 13.9964 5.3306C14.1292 5.33176 14.2604 5.35934 14.3824 5.41175C14.5044 5.46416 14.6148 5.54034 14.707 5.63585Z" fill="#252525"/>
</g>
<defs>
<clipPath id="clip0_23_309">
<rect width="24" height="24" fill="white"/>
</clipPath>
</defs>
</svg>
