<svg width="82" height="18" viewBox="0 0 82 18" fill="none" xmlns="http://www.w3.org/2000/svg">
<path d="M29.2563 6.425V16.175H28.0563V7.91L28.3413 8L24.9663 13.325L24.7113 12.875H28.2963V14H23.9313V12.875L28.0563 6.425H29.2563ZM29.0163 14V12.875H30.6363V14H29.0163Z" fill="#122732"/>
<path d="M14.6723 8.22599H7.55844C7.3139 8.22599 7.11383 8.42606 7.11383 8.6706V12.6721H1.77846V6.00292C1.77846 5.75838 1.57838 5.5583 1.33384 5.5583H0.444614C0.200076 5.5583 0 5.75838 0 6.00292V15.7844C0 16.029 0.200076 16.229 0.444614 16.229H1.33384C1.57838 16.229 1.77846 16.029 1.77846 15.7844V14.4506H16.0061V15.7844C16.0061 16.029 16.2062 16.229 16.4507 16.229H17.34C17.5845 16.229 17.7846 16.029 17.7846 15.7844V11.3383C17.7846 9.61819 16.3924 8.22599 14.6723 8.22599ZM3.77922 4.66907H7.28334L8.0503 6.20299C8.21425 6.5309 8.68109 6.5309 8.84504 6.20299L10.2261 3.44083L10.8402 4.66907H14.2277C14.4722 4.66907 14.6723 4.469 14.6723 4.22446C14.6723 3.97992 14.4722 3.77985 14.2277 3.77985H11.3905L10.6235 2.24593C10.4595 1.91802 9.9927 1.91802 9.82875 2.24593L8.44767 5.00809L7.89468 3.90212C7.85578 3.82709 7.78075 3.77985 7.6946 3.77985H3.77922C3.65695 3.77985 3.55691 3.87988 3.55691 4.00215V4.44677C3.55691 4.56904 3.65695 4.66907 3.77922 4.66907ZM4.44614 11.7829C5.42707 11.7829 6.2246 10.9854 6.2246 10.0044C6.2246 9.02351 5.42707 8.22599 4.44614 8.22599C3.46521 8.22599 2.66769 9.02351 2.66769 10.0044C2.66769 10.9854 3.46521 11.7829 4.44614 11.7829Z" fill="#122732"/>
<path d="M78.7861 11.735L76.7761 13.19L76.6711 12.875H81.0811V14H75.5311V12.875C76.1811 12.385 76.7561 11.97 77.2561 11.63C77.7661 11.29 78.1961 10.985 78.5461 10.715C78.8961 10.445 79.1611 10.17 79.3411 9.89C79.5311 9.61 79.6261 9.285 79.6261 8.915C79.6261 8.635 79.5711 8.39 79.4611 8.18C79.3511 7.96 79.1811 7.79 78.9511 7.67C78.7311 7.54 78.4411 7.475 78.0811 7.475C77.6411 7.475 77.2611 7.615 76.9411 7.895C76.6211 8.175 76.4611 8.54 76.4611 8.99H75.4111C75.3611 8.49 75.4511 8.045 75.6811 7.655C75.9211 7.255 76.2511 6.94 76.6711 6.71C77.1011 6.47 77.5711 6.35 78.0811 6.35C78.5211 6.35 78.9111 6.42 79.2511 6.56C79.5911 6.69 79.8761 6.87 80.1061 7.1C80.3461 7.33 80.5261 7.595 80.6461 7.895C80.7661 8.195 80.8261 8.51 80.8261 8.84C80.8261 9.14 80.7761 9.415 80.6761 9.665C80.5861 9.915 80.4511 10.155 80.2711 10.385C80.1011 10.615 79.8911 10.84 79.6411 11.06C79.3911 11.28 79.1061 11.505 78.7861 11.735Z" fill="#122732"/>
<path d="M52.8961 13.3386C52.8971 13.8053 52.9966 14.2665 53.1881 14.692C53.3797 15.1176 53.6589 15.4978 54.0076 15.808V17.229C54.0076 17.3764 54.0662 17.5178 54.1704 17.622C54.2747 17.7262 54.416 17.7848 54.5634 17.7848H55.675C55.8223 17.7848 55.9637 17.7262 56.0679 17.622C56.1722 17.5178 56.2307 17.3764 56.2307 17.229V16.6732H65.123V17.229C65.123 17.3764 65.1816 17.5178 65.2858 17.622C65.39 17.7262 65.5314 17.7848 65.6788 17.7848H66.7903C66.9377 17.7848 67.0791 17.7262 67.1833 17.622C67.2875 17.5178 67.3461 17.3764 67.3461 17.229V15.808C67.6948 15.4978 67.974 15.1176 68.1656 14.692C68.3571 14.2665 68.4567 13.8053 68.4576 13.3386V11.6713H52.8961V13.3386ZM69.0134 8.89248H54.5634V2.40563C54.5637 2.25977 54.6072 2.11726 54.6884 1.99609C54.7697 1.87492 54.8849 1.78052 55.0197 1.72479C55.1545 1.66905 55.3028 1.65449 55.4459 1.68293C55.5889 1.71137 55.7204 1.78155 55.8236 1.8846L56.493 2.55361C56.0369 3.5915 56.2286 4.60682 56.7924 5.32307L56.7865 5.32897C56.6827 5.43314 56.6244 5.57423 56.6244 5.72131C56.6244 5.86839 56.6827 6.00947 56.7865 6.11364L57.1793 6.5065C57.231 6.55812 57.2922 6.59907 57.3597 6.62701C57.4271 6.65495 57.4994 6.66933 57.5724 6.66933C57.6454 6.66933 57.7177 6.65495 57.7851 6.62701C57.8525 6.59907 57.9138 6.55812 57.9654 6.5065L61.6255 2.84643C61.6771 2.79482 61.7181 2.73354 61.746 2.66611C61.7739 2.59867 61.7883 2.52639 61.7883 2.45339C61.7883 2.3804 61.7739 2.30812 61.746 2.24068C61.7181 2.17324 61.6771 2.11197 61.6255 2.06036L61.2326 1.6675C61.1284 1.56335 60.9871 1.50485 60.8398 1.50485C60.6924 1.50485 60.5511 1.56335 60.4469 1.6675L60.441 1.67341C59.7248 1.10965 58.7101 0.917911 57.6715 1.37399L57.0025 0.704635C56.6661 0.368189 56.2375 0.139062 55.7709 0.0462316C55.3042 -0.0465989 54.8206 0.001037 54.381 0.183115C53.9414 0.365193 53.5657 0.673534 53.3014 1.06914C53.0371 1.46475 52.8961 1.92985 52.8961 2.40563V8.89248H52.3403C52.1929 8.89248 52.0516 8.95104 51.9474 9.05526C51.8431 9.15949 51.7846 9.30085 51.7846 9.44825V10.004C51.7846 10.1514 51.8431 10.2928 51.9474 10.397C52.0516 10.5012 52.1929 10.5598 52.3403 10.5598H69.0134C69.1608 10.5598 69.3021 10.5012 69.4064 10.397C69.5106 10.2928 69.5691 10.1514 69.5691 10.004V9.44825C69.5691 9.30085 69.5106 9.15949 69.4064 9.05526C69.3021 8.95104 69.1608 8.89248 69.0134 8.89248Z" fill="#122732"/>
</svg>
