<svg width="119" height="22" viewBox="0 0 119 22" fill="none" xmlns="http://www.w3.org/2000/svg">
<path d="M10.7962 0L13.2201 7.45997H21.0639L14.7181 12.0705L17.142 19.5305L10.7962 14.9199L4.45034 19.5305L6.87423 12.0705L0.528402 7.45997H8.37228L10.7962 0Z" fill="#123344"/>
<path d="M35.0217 0L37.4456 7.45997H45.2895L38.9437 12.0705L41.3675 19.5305L35.0217 14.9199L28.6759 19.5305L31.0998 12.0705L24.754 7.45997H32.5978L35.0217 0Z" fill="#123344"/>
<path d="M59.2473 0L61.6712 7.45997H69.515L63.1692 12.0705L65.5931 19.5305L59.2473 14.9199L52.9014 19.5305L55.3253 12.0705L48.9795 7.45997H56.8234L59.2473 0Z" fill="#123344"/>
<path d="M83.4729 0L85.8967 7.45997H93.7406L87.3948 12.0705L89.8187 19.5305L83.4729 14.9199L77.127 19.5305L79.5509 12.0705L73.2051 7.45997H81.049L83.4729 0Z" fill="#123344"/>
<path d="M107.698 0L110.122 7.45997H117.966L111.62 12.0705L114.044 19.5305L107.698 14.9199L101.353 19.5305L103.776 12.0705L97.4306 7.45997H105.275L107.698 0Z" fill="#123344"/>
</svg>
