<svg width="50" height="50" viewBox="0 0 50 50" fill="none" xmlns="http://www.w3.org/2000/svg">
<rect width="50" height="50" rx="15" fill="#122732"/>
<path d="M25.5 25.0625C29.4453 25.0625 32.6429 21.9149 32.6429 18.0312C32.6429 14.1476 29.4453 11 25.5 11C21.5547 11 18.3571 14.1476 18.3571 18.0312C18.3571 21.9149 21.5547 25.0625 25.5 25.0625ZM30.5 26.8203H29.5681C28.3292 27.3806 26.9509 27.6992 25.5 27.6992C24.0491 27.6992 22.6763 27.3806 21.4319 26.8203H20.5C16.3594 26.8203 13 30.1272 13 34.2031V36.4883C13 37.944 14.1998 39.125 15.6786 39.125H35.3214C36.8002 39.125 38 37.944 38 36.4883V34.2031C38 30.1272 34.6406 26.8203 30.5 26.8203Z" fill="white"/>
</svg>
